<?xml version="1.0" encoding="UTF-8"?>
<!DOCTYPE svg PUBLIC "-//W3C//DTD SVG 1.1//EN" "http://www.w3.org/Graphics/SVG/1.1/DTD/svg11.dtd">
<svg xmlns="http://www.w3.org/2000/svg" version="1.1" width="1024px" height="1024px" style="shape-rendering:geometricPrecision; text-rendering:geometricPrecision; image-rendering:optimizeQuality; fill-rule:evenodd; clip-rule:evenodd" xmlns:xlink="http://www.w3.org/1999/xlink">
<g><path style="opacity:1" fill="#202020" d="M 429.5,289.5 C 440.784,288.953 446.951,294.286 448,305.5C 448.829,310.864 448.663,316.198 447.5,321.5C 446.707,321.931 445.873,322.265 445,322.5C 435.957,321.86 426.957,321.193 418,320.5C 417.11,313.086 417.443,305.753 419,298.5C 421.489,294.168 424.989,291.168 429.5,289.5 Z"/></g>
<g><path style="opacity:1" fill="#222322" d="M 519.5,289.5 C 527.144,288.428 532.977,291.095 537,297.5C 539.495,305.258 539.995,313.091 538.5,321C 537.5,321.5 536.5,322 535.5,322.5C 527.062,322.315 518.395,321.982 509.5,321.5C 508.336,314.524 508.169,307.524 509,300.5C 510.658,295.01 514.158,291.343 519.5,289.5 Z"/></g>
<g><path style="opacity:1" fill="#212121" d="M 565.5,289.5 C 572.789,288.644 578.289,291.31 582,297.5C 584.228,305.025 584.895,312.692 584,320.5C 583,321.167 582,321.833 581,322.5C 572,321.833 563,321.167 554,320.5C 553.152,313.101 553.485,305.767 555,298.5C 557.489,294.168 560.989,291.168 565.5,289.5 Z"/></g>
<g><path style="opacity:1" fill="#222222" d="M 610.5,289.5 C 624.776,289.96 631.109,297.46 629.5,312C 629.333,314.833 629.167,317.667 629,320.5C 628.5,321 628,321.5 627.5,322C 618.986,321.382 610.486,321.548 602,322.5C 600.739,322.241 599.739,321.574 599,320.5C 598.152,313.101 598.485,305.767 600,298.5C 602.489,294.168 605.989,291.168 610.5,289.5 Z"/></g>
<g><path style="opacity:1" fill="#212222" d="M 654.5,289.5 C 664.427,288.606 670.593,292.939 673,302.5C 673.809,308.749 673.642,314.916 672.5,321C 662.922,321.818 653.422,321.651 644,320.5C 643.333,313.833 643.333,307.167 644,300.5C 646.357,295.645 649.857,291.979 654.5,289.5 Z"/></g>
<g><path style="opacity:1" fill="#1e1e1e" d="M 387.5,289.5 C 399.9,291.902 405.234,299.568 403.5,312.5C 403.476,315.421 403.143,318.254 402.5,321C 392.922,321.818 383.422,321.651 374,320.5C 373.691,319.234 373.191,318.067 372.5,317C 373.31,311.249 373.81,305.416 374,299.5C 376.982,294.005 381.482,290.671 387.5,289.5 Z"/></g>
<g><path style="opacity:1" fill="#1f1f1f" d="M 474.5,289.5 C 482.102,288.418 487.936,291.085 492,297.5C 493.401,305.415 493.901,313.415 493.5,321.5C 483.5,321.5 473.5,321.5 463.5,321.5C 463.334,314.159 463.5,306.826 464,299.5C 466.106,294.557 469.606,291.224 474.5,289.5 Z"/></g>
<g><path style="opacity:1" fill="#1e1e1e" d="M 387.5,337.5 C 482.391,338.522 576.058,338.522 668.5,337.5C 669.748,338.04 670.915,338.707 672,339.5C 672.667,349.167 672.667,358.833 672,368.5C 572.903,369.665 473.737,369.832 374.5,369C 373.349,359.244 373.182,349.411 374,339.5C 378.601,338.858 383.101,338.191 387.5,337.5 Z"/></g>
<g><path style="opacity:1" fill="#1c1c1c" d="M 375.5,386.5 C 404.502,386.333 433.502,386.5 462.5,387C 463.126,387.75 463.626,388.584 464,389.5C 464.429,468.701 464.263,549.368 463.5,631.5C 433.6,632.828 403.767,632.828 374,631.5C 373.333,550.5 373.333,469.5 374,388.5C 374.717,387.956 375.217,387.289 375.5,386.5 Z"/></g>
<g><path style="opacity:1" fill="#1d1d1d" d="M 585.5,386.5 C 614.407,386.171 643.24,386.505 672,387.5C 672.169,439.737 672.669,491.904 673.5,544C 673.821,573.199 673.487,602.532 672.5,632C 642.928,632.828 613.428,632.662 584,631.5C 583.677,567.922 583.177,505.422 582.5,444C 583.327,425.573 583.827,407.073 584,388.5C 584.717,387.956 585.217,387.289 585.5,386.5 Z"/></g>
<g><path style="opacity:1" fill="#1c1c1c" d="M 564.5,629.5 C 538.06,631.477 511.393,632.144 484.5,631.5C 483.883,631.389 483.383,631.056 483,630.5C 482.168,549.263 482.335,468.097 483.5,387C 510.167,386.333 536.833,386.333 563.5,387C 564.167,387.667 564.833,388.333 565.5,389C 565.616,467.144 565.282,547.311 564.5,629.5 Z"/></g>
<g><path style="opacity:1" fill="#414141" d="M 564.5,629.5 C 565.598,630.397 565.598,631.23 564.5,632C 537.664,632.83 510.997,632.664 484.5,631.5C 511.393,632.144 538.06,631.477 564.5,629.5 Z"/></g>
<g><path style="opacity:1" fill="#7d7d7c" d="M 402.5,652.5 C 394.913,652.186 387.413,652.519 380,653.5C 378.378,652.901 376.878,652.234 375.5,651.5C 383.561,651.817 391.895,651.484 400.5,650.5C 401.713,650.747 402.38,651.414 402.5,652.5 Z"/></g>
<g><path style="opacity:1" fill="#767776" d="M 489.5,650.5 C 508.23,651.769 527.397,651.769 547,650.5C 552.417,651.309 557.917,651.809 563.5,652C 564.337,653.011 564.67,654.178 564.5,655.5C 539.14,655.227 514.14,655.227 489.5,655.5C 487.5,655.333 485.5,655.167 483.5,655C 483.043,654.586 482.709,654.086 482.5,653.5C 484.621,651.982 486.954,650.982 489.5,650.5 Z"/></g>
<g><path style="opacity:1" fill="#656665" d="M 375.5,651.5 C 376.878,652.234 378.378,652.901 380,653.5C 387.413,652.519 394.913,652.186 402.5,652.5C 404.549,652.706 404.883,653.539 403.5,655C 393.833,655.667 384.167,655.667 374.5,655C 373.015,653.244 373.348,652.077 375.5,651.5 Z"/></g>
<g><path style="opacity:1" fill="#757575" d="M 586.5,650.5 C 597.043,651.777 607.543,651.777 618,650.5C 619.399,651.227 620.899,651.727 622.5,652C 623.337,653.011 623.67,654.178 623.5,655.5C 610.829,655.667 598.162,655.5 585.5,655C 584.419,653.289 584.752,651.789 586.5,650.5 Z"/></g>
<g><path style="opacity:1" fill="#6b6b6b" d="M 426.5,651.5 C 438.505,651.333 450.505,651.5 462.5,652C 463.337,653.011 463.67,654.178 463.5,655.5C 451.495,655.667 439.495,655.5 427.5,655C 425.627,654.047 425.294,652.88 426.5,651.5 Z"/></g>
<g><path style="opacity:1" fill="#6e6e6e" d="M 645.5,651.5 C 654.173,651.334 662.84,651.5 671.5,652C 672.167,652.667 672.833,653.333 673.5,654C 664.602,655.609 655.602,655.942 646.5,655C 644.273,654.296 643.94,653.129 645.5,651.5 Z"/></g>
<g><path style="opacity:1" fill="#1d1d1d" d="M 375.5,672.5 C 473.834,672.333 572.167,672.5 670.5,673C 671.701,673.903 672.535,675.069 673,676.5C 673.667,684.833 673.667,693.167 673,701.5C 660.169,703.161 647.169,704.161 634,704.5C 574.75,703.53 515.083,703.53 455,704.5C 428.239,703.671 401.405,703.171 374.5,703C 373.349,693.578 373.182,684.078 374,674.5C 374.717,673.956 375.217,673.289 375.5,672.5 Z"/></g>
<g><path style="opacity:1" fill="#202020" d="M 374.5,720.5 C 383.506,720.334 392.506,720.5 401.5,721C 402,721.5 402.5,722 403,722.5C 403.667,729.5 403.667,736.5 403,743.5C 399.058,752.719 392.225,755.886 382.5,753C 376.808,750.794 373.641,746.627 373,740.5C 372.01,733.661 372.51,726.995 374.5,720.5 Z"/></g>
<g><path style="opacity:1" fill="#212121" d="M 434.5,719.5 C 437.968,719.536 441.634,719.702 445.5,720C 446.416,720.374 447.25,720.874 448,721.5C 448.667,728.5 448.667,735.5 448,742.5C 445.665,749.987 440.498,753.987 432.5,754.5C 426.265,754.098 421.765,751.098 419,745.5C 417.432,737.579 417.099,729.579 418,721.5C 423.6,720.854 429.1,720.187 434.5,719.5 Z"/></g>
<g><path style="opacity:1" fill="#202020" d="M 668.5,719.5 C 670.229,720.117 671.729,721.117 673,722.5C 673.322,727.852 673.822,733.186 674.5,738.5C 672.654,751.498 665.32,756.331 652.5,753C 648.612,750.778 645.779,747.612 644,743.5C 643.333,736.167 643.333,728.833 644,721.5C 652.265,720.847 660.432,720.18 668.5,719.5 Z"/></g>
<g><path style="opacity:1" fill="#1f1f1f" d="M 463.5,720.5 C 473.416,720.181 483.25,720.514 493,721.5C 493.374,722.416 493.874,723.25 494.5,724C 493.687,730.419 493.187,736.919 493,743.5C 487.952,753.728 480.118,756.561 469.5,752C 465.381,749.261 463.214,745.427 463,740.5C 462.208,733.753 462.374,727.086 463.5,720.5 Z"/></g>
<g><path style="opacity:1" fill="#212121" d="M 511.5,719.5 C 518.466,720.767 525.466,720.767 532.5,719.5C 534.808,719.365 536.808,720.031 538.5,721.5C 539.63,728.45 539.797,735.45 539,742.5C 535.201,752.816 528.034,756.316 517.5,753C 513.612,750.778 510.779,747.612 509,743.5C 508.5,735.841 508.334,728.174 508.5,720.5C 509.791,720.737 510.791,720.404 511.5,719.5 Z"/></g>
<g><path style="opacity:1" fill="#212121" d="M 614.5,719.5 C 619.108,719.391 623.774,719.891 628.5,721C 629.647,728.42 629.813,735.92 629,743.5C 623.857,753.745 616.023,756.578 605.5,752C 599.966,746.565 597.632,739.899 598.5,732C 598.667,729.167 598.833,726.333 599,723.5C 599.374,722.584 599.874,721.75 600.5,721C 605.351,720.826 610.018,720.326 614.5,719.5 Z"/></g>
<g><path style="opacity:1" fill="#232322" d="M 557.5,719.5 C 565.507,719.334 573.507,719.5 581.5,720C 582.416,720.374 583.25,720.874 584,721.5C 584.667,728.833 584.667,736.167 584,743.5C 580.176,752.658 573.343,755.824 563.5,753C 558.162,750.993 554.996,747.159 554,741.5C 553.333,735.167 553.333,728.833 554,722.5C 554.985,721.186 556.152,720.186 557.5,719.5 Z"/></g>
</svg>
